# xmcd CD database file
#
# Track frame offsets:
#	150
#	15673
#	28333
#	40467
#	55608
#	68405
#	81346
#	95596
#	107589
#	134235
#	152776
#	176766
#	198577
#	225818
#	245135
#	274487
#	297394
#
# Disc length: 4262 seconds
#
# Revision: 0
# Processed by: cddbd v1.5.1PL0 Copyright (c) Steve Scherf et al.
# Submitted via: CDex 1.51
#
DISCID=fa10a411
DTITLE=Sarah Vaughan - SHULIE A BOP
DYEAR=1954
DGENRE=Jazz
TTITLE0=Lover Man
TTITLE1=Shulie A Bop
TTITLE2=Polka Dots and Moonbeams
TTITLE3=Body and Soul
TTITLE4=They Can't Take That Away From Me
TTITLE5=Prelude To A Kiss
TTITLE6=You Hit The Spot
TTITLE7=If I Knew Then (What I Know Now)
TTITLE8=September Song
TTITLE9=Lullaby Of Birdland
TTITLE10=I'm Glad There Is You
TTITLE11=You're Not The Kind
TTITLE12=Jim
TTITLE13=He's My Guy
TTITLE14=April In Paris
TTITLE15=It's Crazy
TTITLE16=Embraceable You
EXTD=YEAR: 1954
EXTT0=
EXTT1=
EXTT2=
EXTT3=
EXTT4=
EXTT5=
EXTT6=
EXTT7=
EXTT8=
EXTT9=
EXTT10=
EXTT11=
EXTT12=
EXTT13=
EXTT14=
EXTT15=
EXTT16=
PLAYORDER=
